<?xml version="1.0"?>
<svg xmlns="http://www.w3.org/2000/svg" xmlns:xlink="http://www.w3.org/1999/xlink" version="1.1" xml:space="preserve">
	<defs>
		<symbol id="email" width="100%" height="100%" viewBox="0 0 22 18">
			<path fill-rule="evenodd" clip-rule="evenodd" d="M1.37868 1.71193C0.5 2.59061 0.5 4.00482 0.5 6.83325V11.1666C0.5 13.995 0.5 15.4092 1.37868 16.2879C2.25736 17.1666 3.67157 17.1666 6.5 17.1666H15.5C18.3284 17.1666 19.7426 17.1666 20.6213 16.2879C21.5 15.4092 21.5 13.995 21.5 11.1666V6.83325C21.5 4.00483 21.5 2.59061 20.6213 1.71193C19.7426 0.833252 18.3284 0.833252 15.5 0.833252H6.5C3.67157 0.833252 2.25736 0.833252 1.37868 1.71193ZM4.5547 4.66787C4.09517 4.36152 3.4743 4.48569 3.16795 4.94522C2.8616 5.40475 2.98577 6.02562 3.4453 6.33197L9.8906 10.6288C10.5624 11.0767 11.4376 11.0767 12.1094 10.6288L18.5547 6.33197C19.0142 6.02562 19.1384 5.40475 18.8321 4.94522C18.5257 4.48569 17.9048 4.36152 17.4453 4.66787L11 8.96474L4.5547 4.66787Z" fill="currentColor" />
		</symbol>
		<symbol id="phone" width="100%" height="100%" viewBox="0 0 22 22">
			<path d="M0.599998 1.9001C0.599998 1.18213 1.18203 0.600098 1.9 0.600098H4.69873C5.33422 0.600098 5.87657 1.05953 5.98105 1.68638L6.94215 7.45301C7.03597 8.01596 6.75167 8.57426 6.24122 8.82949L4.22864 9.83578C5.67982 13.4419 8.55818 16.3203 12.1643 17.7715L13.1706 15.7589C13.4258 15.2484 13.9841 14.9641 14.5471 15.0579L20.3137 16.019C20.9406 16.1235 21.4 16.6659 21.4 17.3014V20.1001C21.4 20.8181 20.818 21.4001 20.1 21.4001H17.5C8.16639 21.4001 0.599998 13.8337 0.599998 4.5001V1.9001Z" fill="currentColor" />
		</symbol>
		<symbol id="menu" width="100%" height="100%" viewBox="0 0 47 27">
			<rect width="47" height="3" fill="currentColor" />
			<rect y="12" width="47" height="3" fill="currentColor" />
			<rect y="24" width="47" height="3" fill="currentColor" />
		</symbol>
		<symbol id="arrow-right" width="100%" height="100%" viewBox="0 0 15 10">
			<path d="M13 5L13.7071 4.29289L14.4142 5L13.7071 5.70711L13 5ZM1 6C0.447715 6 0 5.55228 0 5C0 4.44772 0.447715 4 1 4V6ZM9.70711 0.292893L13.7071 4.29289L12.2929 5.70711L8.29289 1.70711L9.70711 0.292893ZM13.7071 5.70711L9.70711 9.70711L8.29289 8.29289L12.2929 4.29289L13.7071 5.70711ZM13 6H1V4H13V6Z" fill="currentColor" />
		</symbol>
		<symbol id="arrow-left" width="100%" height="100%" viewBox="0 0 15 10">
			<path d="M2 5L1.29289 4.29289L0.585786 5L1.29289 5.70711L2 5ZM14 6C14.5523 6 15 5.55228 15 5C15 4.44772 14.5523 4 14 4V6ZM5.29289 0.292893L1.29289 4.29289L2.70711 5.70711L6.70711 1.70711L5.29289 0.292893ZM1.29289 5.70711L5.29289 9.70711L6.70711 8.29289L2.70711 4.29289L1.29289 5.70711ZM2 6H14V4H2V6Z" fill="currentColor" />
		</symbol>
		<symbol id="gal-ochka" width="100%" height="100%" viewBox="0 0 12 10">
			<path d="M6.23497 8.79946C5.9649 9.16602 5.54433 9.3913 5.0896 9.41369C4.63487 9.43632 4.19445 9.25304 3.88975 8.91464L1.15929 5.88456C0.725328 5.40328 0.763876 4.6614 1.24515 4.22744C1.72689 3.79348 2.46831 3.83226 2.90227 4.31377L4.83407 6.45771C4.8627 6.48956 4.90425 6.50664 4.94695 6.50456C4.98988 6.50249 5.02912 6.48102 5.05475 6.44686L9.02546 1.0614C9.40979 0.539728 10.1443 0.428699 10.6662 0.813259C11.1876 1.19782 11.2984 1.93232 10.9139 2.45376L6.23497 8.79946Z" fill="currentColor" />
		</symbol>
		<symbol id="to-right" width="100%" height="100%" viewBox="0 0 8 14">
			<path d="M5.63663 7.00019L1.15148 2.51504C0.7935 2.15706 0.7935 1.57666 1.15148 1.21868C1.50946 0.8607 2.08986 0.8607 2.44784 1.21868L7.58118 6.35201C7.93916 6.70999 7.93916 7.29039 7.58118 7.64838L2.44784 12.7817C2.08986 13.1397 1.50946 13.1397 1.15148 12.7817C0.7935 12.4237 0.7935 11.8433 1.15148 11.4853L5.63663 7.00019Z" fill="currentColor" />
		</symbol>
		<symbol id="to-left" width="100%" height="100%" viewBox="0 0 8 14">
			<path d="M2.36337 7.00019L6.84852 2.51504C7.2065 2.15706 7.2065 1.57666 6.84852 1.21868C6.49054 0.8607 5.91014 0.8607 5.55216 1.21868L0.418823 6.35201C0.0608425 6.70999 0.0608425 7.29039 0.418823 7.64838L5.55216 12.7817C5.91014 13.1397 6.49054 13.1397 6.84852 12.7817C7.2065 12.4237 7.2065 11.8433 6.84852 11.4853L2.36337 7.00019Z" fill="currentColor" />
		</symbol>
		<symbol id="play" width="100%" height="100%" viewBox="0 0 32 38">
			<path d="M5.27275 38C4.93519 38 4.61146 37.8332 4.37278 37.5363C4.13409 37.2393 4 36.8366 4 36.4167V1.58307C4.00004 1.30794 4.05771 1.03756 4.16732 0.79859C4.27694 0.559623 4.43472 0.360315 4.62511 0.220312C4.81551 0.0803081 5.03194 0.00444103 5.25308 0.000189119C5.47422 -0.00406279 5.69243 0.0634472 5.88621 0.196064L31.3411 17.6129C31.5407 17.7495 31.7071 17.9503 31.823 18.1943C31.9389 18.4383 32 18.7165 32 18.9999C32 19.2833 31.9389 19.5615 31.823 19.8054C31.7071 20.0494 31.5407 20.2502 31.3411 20.3869L5.88621 37.8037C5.69829 37.9324 5.48727 37.9999 5.27275 38Z" fill="currentColor" />
		</symbol>
		<symbol id="cross" width="100%" height="100%" viewBox="0 0 16 16">
			<path d="M1 15L15 1M1 1L15 15" fill="none" stroke="currentColor" stroke-width="2" stroke-linecap="round" stroke-linejoin="round" />
		</symbol>
		<symbol id="location" width="100%" height="100%" viewBox="0 0 18 17">
			<path d="M8.5 1C5.45929 1 3 3.504 3 6.6C3 10.8 8.5 17 8.5 17C8.5 17 14 10.8 14 6.6C14 3.504 11.5407 1 8.5 1ZM8.5 2.6C8.5 0.392 8.5 5.5 8.5 2.6C8.5 0.392 8.5 4 8.5 2.6C8.5 4.904 8.5 4.5 8.5 2.6C8.5 5.5 8.5 4.88 8.5 2.6Z" fill="currentColor" />
			<path d="M8.5 8C9.32843 8 10 7.32843 10 6.5C10 5.67157 9.32843 5 8.5 5C7.67157 5 7 5.67157 7 6.5C7 7.32843 7.67157 8 8.5 8Z" fill="var(--bg3)" />
		</symbol>
		<symbol id="share" width="100%" height="100%" viewBox="0 0 32 32">
			<path d="M24 18.6671C23.2122 18.6724 22.4354 18.852 21.7253 19.1932C21.0153 19.5344 20.3896 20.0287 19.8933 20.6405L13.0933 17.5071C13.413 16.5281 13.413 15.4728 13.0933 14.4938L19.8933 11.3605C20.6955 12.3284 21.8138 12.9819 23.0509 13.2056C24.2879 13.4293 25.5643 13.2088 26.6546 12.583C27.7449 11.9573 28.5791 10.9664 29.01 9.78547C29.441 8.60449 29.4408 7.30925 29.0097 6.12835C28.5786 4.94745 27.7442 3.9568 26.6537 3.33124C25.5633 2.70567 24.2869 2.4854 23.0499 2.70931C21.8129 2.93322 20.6947 3.5869 19.8927 4.555C19.0907 5.5231 18.6565 6.74338 18.6667 8.00048C18.6707 8.31812 18.7019 8.63484 18.76 8.94714L11.72 12.1871C10.9694 11.4532 10.019 10.9572 8.98773 10.761C7.95647 10.5649 6.89028 10.6775 5.92272 11.0847C4.95516 11.4918 4.12927 12.1754 3.54852 13.0499C2.96777 13.9243 2.65799 14.9507 2.65799 16.0005C2.65799 17.0502 2.96777 18.0766 3.54852 18.9511C4.12927 19.8255 4.95516 20.5091 5.92272 20.9163C6.89028 21.3235 7.95647 21.436 8.98773 21.2399C10.019 21.0438 10.9694 20.5477 11.72 19.8138L18.76 23.0538C18.7019 23.3661 18.6707 23.6828 18.6667 24.0005C18.6667 25.0553 18.9794 26.0865 19.5655 26.9635C20.1515 27.8406 20.9845 28.5242 21.959 28.9278C22.9335 29.3315 24.0059 29.4371 25.0405 29.2313C26.075 29.0255 27.0253 28.5176 27.7712 27.7717C28.5171 27.0258 29.0251 26.0755 29.2308 25.041C29.4366 24.0064 29.331 22.934 28.9273 21.9595C28.5237 20.985 27.8401 20.152 26.963 19.566C26.086 18.9799 25.0548 18.6671 24 18.6671ZM24 5.33381C24.5274 5.33381 25.043 5.49021 25.4815 5.78323C25.92 6.07624 26.2618 6.49272 26.4637 6.97999C26.6655 7.46726 26.7183 8.00344 26.6154 8.52072C26.5125 9.038 26.2585 9.51316 25.8856 9.8861C25.5127 10.259 25.0375 10.513 24.5202 10.6159C24.0029 10.7188 23.4668 10.666 22.9795 10.4642C22.4922 10.2623 22.0758 9.92053 21.7827 9.482C21.4897 9.04347 21.3333 8.52789 21.3333 8.00048C21.3333 7.29323 21.6143 6.61496 22.1144 6.11486C22.6145 5.61476 23.2927 5.33381 24 5.33381ZM7.99999 18.6671C7.47257 18.6671 6.957 18.5107 6.51847 18.2177C6.07994 17.9247 5.73814 17.5082 5.53631 17.021C5.33447 16.5337 5.28166 15.9975 5.38456 15.4802C5.48745 14.963 5.74143 14.4878 6.11437 14.1149C6.48731 13.7419 6.96246 13.4879 7.47975 13.3851C7.99703 13.2822 8.53321 13.335 9.02048 13.5368C9.50775 13.7386 9.92422 14.0804 10.2172 14.519C10.5103 14.9575 10.6667 15.4731 10.6667 16.0005C10.6667 16.7077 10.3857 17.386 9.8856 17.8861C9.38551 18.3862 8.70723 18.6671 7.99999 18.6671ZM24 26.6671C23.4726 26.6671 22.957 26.5107 22.5185 26.2177C22.0799 25.9247 21.7381 25.5082 21.5363 25.021C21.3345 24.5337 21.2817 23.9975 21.3846 23.4802C21.4875 22.963 21.7414 22.4878 22.1144 22.1149C22.4873 21.7419 22.9625 21.4879 23.4797 21.3851C23.997 21.2822 24.5332 21.335 25.0205 21.5368C25.5077 21.7386 25.9242 22.0804 26.2172 22.519C26.5103 22.9575 26.6667 23.4731 26.6667 24.0005C26.6667 24.7077 26.3857 25.386 25.8856 25.8861C25.3855 26.3862 24.7072 26.6671 24 26.6671Z" fill="currentColor" />
		</symbol>
		<!--  -->
		<!--  -->
		<!--  -->
	</defs>
</svg>
