<?xml version="1.0"?>
<svg xmlns="http://www.w3.org/2000/svg" xmlns:xlink="http://www.w3.org/1999/xlink" version="1.1" xml:space="preserve">
	<defs>
		<symbol id="email" width="100%" height="100%" viewBox="0 0 22 18">
			<path fill-rule="evenodd" clip-rule="evenodd" d="M1.37868 1.71193C0.5 2.59061 0.5 4.00482 0.5 6.83325V11.1666C0.5 13.995 0.5 15.4092 1.37868 16.2879C2.25736 17.1666 3.67157 17.1666 6.5 17.1666H15.5C18.3284 17.1666 19.7426 17.1666 20.6213 16.2879C21.5 15.4092 21.5 13.995 21.5 11.1666V6.83325C21.5 4.00483 21.5 2.59061 20.6213 1.71193C19.7426 0.833252 18.3284 0.833252 15.5 0.833252H6.5C3.67157 0.833252 2.25736 0.833252 1.37868 1.71193ZM4.5547 4.66787C4.09517 4.36152 3.4743 4.48569 3.16795 4.94522C2.8616 5.40475 2.98577 6.02562 3.4453 6.33197L9.8906 10.6288C10.5624 11.0767 11.4376 11.0767 12.1094 10.6288L18.5547 6.33197C19.0142 6.02562 19.1384 5.40475 18.8321 4.94522C18.5257 4.48569 17.9048 4.36152 17.4453 4.66787L11 8.96474L4.5547 4.66787Z" fill="currentColor" />
		</symbol>
		<symbol id="phone" width="100%" height="100%" viewBox="0 0 37 37">
			<path d="M10.6311 17.1178C12.8711 21.52 16.48 25.1289 20.8822 27.3689L24.3044 23.9467C24.74 23.5111 25.3467 23.3867 25.8911 23.5578C27.6333 24.1333 29.5 24.4444 31.4444 24.4444C31.857 24.4444 32.2527 24.6083 32.5444 24.9001C32.8361 25.1918 33 25.5874 33 26V31.4444C33 31.857 32.8361 32.2527 32.5444 32.5444C32.2527 32.8361 31.857 33 31.4444 33C24.4309 33 17.7047 30.2139 12.7454 25.2546C7.7861 20.2953 5 13.5691 5 6.55556C5 6.143 5.16389 5.74733 5.45561 5.45561C5.74733 5.16389 6.143 5 6.55556 5H12C12.4126 5 12.8082 5.16389 13.0999 5.45561C13.3917 5.74733 13.5556 6.143 13.5556 6.55556C13.5556 8.5 13.8667 10.3667 14.4422 12.1089C14.6133 12.6533 14.4889 13.26 14.0533 13.6956L10.6311 17.1178Z" fill="currentColor" />
		</symbol>
		<symbol id="whatsapp" width="100%" height="100%" viewBox="0 0 22 22">
			<path d="M18.7805 3.20833C16.7108 1.14583 13.9512 0 11.0383 0C4.98258 0 0.0766539 4.88889 0.0766539 10.9236C0.0766539 12.8333 0.61324 14.7431 1.5331 16.3472L0 22L5.82579 20.4722C7.43554 21.3125 9.1986 21.7708 11.0383 21.7708C17.0941 21.7708 22 16.8819 22 10.8472C21.9233 8.02083 20.8502 5.27083 18.7805 3.20833ZM16.3275 14.8194C16.0976 15.4306 15.0244 16.0417 14.4878 16.1181C14.0279 16.1944 13.4146 16.1944 12.8014 16.0417C12.4181 15.8889 11.8815 15.7361 11.2683 15.4306C8.50871 14.2847 6.74565 11.5347 6.59234 11.3056C6.43903 11.1528 5.44251 9.85417 5.44251 8.47917C5.44251 7.10417 6.1324 6.49305 6.36237 6.1875C6.59233 5.88194 6.89895 5.88194 7.12892 5.88194C7.28223 5.88194 7.51219 5.88194 7.6655 5.88194C7.81881 5.88194 8.04878 5.80555 8.27874 6.34028C8.50871 6.875 9.04529 8.25 9.12195 8.32639C9.1986 8.47917 9.1986 8.63194 9.12195 8.78472C9.04529 8.9375 8.96864 9.09028 8.81533 9.24305C8.66202 9.39583 8.50871 9.625 8.43205 9.70139C8.27874 9.85417 8.12543 10.0069 8.27874 10.2361C8.43205 10.5417 8.96864 11.3819 9.81185 12.1458C10.885 13.0625 11.7282 13.3681 12.0348 13.5208C12.3415 13.6736 12.4948 13.5972 12.6481 13.4444C12.8014 13.2917 13.338 12.6806 13.4913 12.375C13.6446 12.0694 13.8746 12.1458 14.1045 12.2222C14.3345 12.2986 15.7143 12.9861 15.9442 13.1389C16.2509 13.2917 16.4042 13.3681 16.4808 13.4444C16.5575 13.6736 16.5575 14.2083 16.3275 14.8194Z" fill="currentColor" />
		</symbol>
		<symbol id="telegramm" width="100%" height="100%" viewBox="0 0 25 21">
			<path d="M0.426379 10.0798L6.0167 12.1436L8.19596 19.0854C8.29071 19.5545 8.85922 19.6483 9.23822 19.3668L12.365 16.834C12.6492 16.5526 13.123 16.5526 13.502 16.834L19.0923 20.8678C19.4713 21.1492 20.0398 20.9616 20.1346 20.4925L24.3036 0.79282C24.3983 0.323779 23.9246 -0.145258 23.4508 0.0423587L0.426379 8.86033C-0.142126 9.04795 -0.142126 9.89222 0.426379 10.0798ZM7.91172 11.1117L18.9028 4.45134C19.0923 4.35753 19.2818 4.63896 19.0923 4.73277L10.091 13.0817C9.80672 13.3631 9.52246 13.7384 9.52246 14.2074L9.23822 16.4588C9.23822 16.7402 8.76446 16.834 8.66971 16.4588L7.53269 12.3312C7.24844 11.8622 7.43796 11.2993 7.91172 11.1117Z" fill="currentColor" />
		</symbol>
		<symbol id="pinterest" width="100%" height="100%" viewBox="0 0 25 32">
			<path d="M13.2813 0C6.60156 0 0 4.38543 0 11.4829C0 15.9965 2.57813 18.5611 4.14063 18.5611C4.78516 18.5611 5.15625 16.7916 5.15625 16.2915C5.15625 15.6952 3.61328 14.4257 3.61328 11.9445C3.61328 6.78972 7.59766 3.1352 12.7539 3.1352C17.1875 3.1352 20.4688 5.61642 20.4688 10.175C20.4688 13.5794 19.082 19.9652 14.5898 19.9652C12.9688 19.9652 11.582 18.8112 11.582 17.157C11.582 14.7335 13.3008 12.3869 13.3008 9.88644C13.3008 5.64207 7.1875 6.41144 7.1875 11.5406C7.1875 12.6177 7.32422 13.8102 7.8125 14.7912C6.91406 18.5996 5.07813 24.2737 5.07813 28.1975C5.07813 29.4093 5.25391 30.6018 5.37109 31.8136C5.59245 32.0572 5.48177 32.0316 5.82031 31.9097C9.10156 27.4858 8.98438 26.6203 10.4688 20.8308C11.2695 22.331 13.3398 23.1389 14.9805 23.1389C21.8945 23.1389 25 16.5031 25 10.5212C25 4.15461 19.4141 0 13.2813 0Z" fill="currentColor" />
		</symbol>
		<symbol id="instagramm" width="100%" height="100%" viewBox="0 0 29 29">
			<path d="M8.45597 0C3.79302 0 0 3.79653 0 8.46069L0 20.544C0 25.207 3.79653 29 8.46069 29L20.544 29C25.207 29 29 25.2035 29 20.5393L29 8.45597C29 3.79302 25.2035 0 20.5393 0L8.45597 0ZM22.9583 4.83333C23.6253 4.83333 24.1667 5.37467 24.1667 6.04167C24.1667 6.70867 23.6253 7.25 22.9583 7.25C22.2913 7.25 21.75 6.70867 21.75 6.04167C21.75 5.37467 22.2913 4.83333 22.9583 4.83333ZM14.5 7.25C18.4984 7.25 21.75 10.5016 21.75 14.5C21.75 18.4984 18.4984 21.75 14.5 21.75C10.5016 21.75 7.25 18.4984 7.25 14.5C7.25 10.5016 10.5016 7.25 14.5 7.25ZM14.5 9.66667C13.2181 9.66667 11.9887 10.1759 11.0823 11.0823C10.1759 11.9887 9.66667 13.2181 9.66667 14.5C9.66667 15.7819 10.1759 17.0113 11.0823 17.9177C11.9887 18.8241 13.2181 19.3333 14.5 19.3333C15.7819 19.3333 17.0113 18.8241 17.9177 17.9177C18.8241 17.0113 19.3333 15.7819 19.3333 14.5C19.3333 13.2181 18.8241 11.9887 17.9177 11.0823C17.0113 10.1759 15.7819 9.66667 14.5 9.66667V9.66667Z" fill="currentColor" />
		</symbol>
		<symbol id="youtube" width="100%" height="100%" viewBox="0 0 37 26">
			<path d="M0.828004 21.9886C1.5829 24.6478 3.89226 25.1344 4.04632 25.2277C7.84699 26.2559 29.1504 26.259 33.0081 25.2277C35.6502 24.4688 36.1355 22.1416 36.2264 21.9886C37.2324 16.6732 37.2987 9.74361 36.1802 3.71216L36.2264 4.01205C35.4715 1.35282 33.1622 0.866266 33.0081 0.772933C29.2583 -0.23843 7.89937 -0.276681 4.04632 0.772933C1.40419 1.53337 0.9189 3.85904 0.828004 4.01205C-0.248876 9.59826 -0.302797 16.0076 0.828004 21.9886V21.9886ZM14.8259 18.5873V7.42865L24.4793 13.0164L14.8259 18.5873Z" fill="currentColor" />
		</symbol>
		<symbol id="vk" width="100%" height="100%" viewBox="0 0 36 22">
			<path d="M35.806 19.7209C34.3357 17.0867 30.5484 13.9214 28.9849 12.544C28.557 12.1668 28.5111 11.5144 28.9006 11.0973C31.8845 7.90514 34.2711 4.23725 35.0925 2.02088C35.455 1.0418 34.7047 0.00733075 33.6476 0.00733075L30.577 0.00733075C29.5649 0.00733075 28.9726 0.368988 28.6903 0.94487C26.2104 6.004 24.0832 8.19349 22.5941 9.47314C21.7604 10.1899 20.4603 9.59614 20.4603 8.50546C20.4603 6.40394 20.4603 3.68744 20.4603 1.76104C20.4603 0.826761 19.6929 0.0708652 18.7463 0.0708652L13.1369 0.00733075C12.4308 0.00733075 12.0274 0.803139 12.4512 1.3611L13.3774 2.68473C13.726 3.14332 13.9141 3.70129 13.9141 4.27391L13.9092 10.2347C13.9092 11.2716 12.6468 11.7783 11.8973 11.0517C9.36183 8.59343 7.16176 3.5734 6.36977 1.17294C6.14069 0.478137 5.48697 0.00895983 4.7457 0.00733075L1.72092 0C0.586119 0 -0.243507 1.07112 0.0649433 2.14958C2.82873 11.8076 8.49947 20.9957 18.6055 21.9919C19.6012 22.0896 20.4603 21.2913 20.4603 20.3033V17.1706C20.4603 16.2721 21.168 15.4999 22.0779 15.4771C22.1098 15.4763 22.1417 15.4763 22.1736 15.4763C24.8465 15.4763 27.8402 19.3495 28.8875 21.161C29.1886 21.6823 29.7515 22 30.3602 22L34.429 22C35.6161 22 36.3779 20.7464 35.806 19.7209Z" fill="currentColor" />
		</symbol>
		<symbol id="menu" width="100%" height="100%" viewBox="0 0 47 27">
			<rect width="47" height="3" fill="currentColor" />
			<rect y="12" width="47" height="3" fill="currentColor" />
			<rect y="24" width="47" height="3" fill="currentColor" />
		</symbol>
		<symbol id="plus" width="100%" height="100%" viewBox="0 0 36 35">
			<rect x="17" width="3" height="35" fill="currentColor" />
			<rect x="0" y="18.5" width="3" height="35" transform="rotate(-90 0.5 18.5)" fill="currentColor" />
		</symbol>
		<symbol id="arrow-right" width="100%" height="100%" viewBox="0 0 50 14">
			<path d="M-7.75778e-07 7L48 7M48 7L38.7097 13M48 7L38.7097 0.999998" stroke="currentColor" fill="none" stroke-width="1.8018" />
		</symbol>
		<symbol id="arrow-left" width="100%" height="100%" viewBox="0 0 50 14">
			<path d="M50 7L2 7M2 7L11.2903 13M2 7L11.2903 0.999998" stroke="currentColor" fill="none" stroke-width="1.8018" />
		</symbol>
		<symbol id="gal-ochka" width="100%" height="100%" viewBox="0 0 12 10">
			<path d="M6.23497 8.79946C5.9649 9.16602 5.54433 9.3913 5.0896 9.41369C4.63487 9.43632 4.19445 9.25304 3.88975 8.91464L1.15929 5.88456C0.725328 5.40328 0.763876 4.6614 1.24515 4.22744C1.72689 3.79348 2.46831 3.83226 2.90227 4.31377L4.83407 6.45771C4.8627 6.48956 4.90425 6.50664 4.94695 6.50456C4.98988 6.50249 5.02912 6.48102 5.05475 6.44686L9.02546 1.0614C9.40979 0.539728 10.1443 0.428699 10.6662 0.813259C11.1876 1.19782 11.2984 1.93232 10.9139 2.45376L6.23497 8.79946Z" fill="currentColor" />
		</symbol>
		<symbol id="to-right" width="100%" height="100%" viewBox="0 0 8 14">
			<path d="M5.63663 7.00019L1.15148 2.51504C0.7935 2.15706 0.7935 1.57666 1.15148 1.21868C1.50946 0.8607 2.08986 0.8607 2.44784 1.21868L7.58118 6.35201C7.93916 6.70999 7.93916 7.29039 7.58118 7.64838L2.44784 12.7817C2.08986 13.1397 1.50946 13.1397 1.15148 12.7817C0.7935 12.4237 0.7935 11.8433 1.15148 11.4853L5.63663 7.00019Z" fill="currentColor" />
		</symbol>
		<symbol id="to-left" width="100%" height="100%" viewBox="0 0 8 14">
			<path d="M2.36337 7.00019L6.84852 2.51504C7.2065 2.15706 7.2065 1.57666 6.84852 1.21868C6.49054 0.8607 5.91014 0.8607 5.55216 1.21868L0.418823 6.35201C0.0608425 6.70999 0.0608425 7.29039 0.418823 7.64838L5.55216 12.7817C5.91014 13.1397 6.49054 13.1397 6.84852 12.7817C7.2065 12.4237 7.2065 11.8433 6.84852 11.4853L2.36337 7.00019Z" fill="currentColor" />
		</symbol>
		<symbol id="play" width="100%" height="100%" viewBox="0 0 32 38">
			<path d="M5.27275 38C4.93519 38 4.61146 37.8332 4.37278 37.5363C4.13409 37.2393 4 36.8366 4 36.4167V1.58307C4.00004 1.30794 4.05771 1.03756 4.16732 0.79859C4.27694 0.559623 4.43472 0.360315 4.62511 0.220312C4.81551 0.0803081 5.03194 0.00444103 5.25308 0.000189119C5.47422 -0.00406279 5.69243 0.0634472 5.88621 0.196064L31.3411 17.6129C31.5407 17.7495 31.7071 17.9503 31.823 18.1943C31.9389 18.4383 32 18.7165 32 18.9999C32 19.2833 31.9389 19.5615 31.823 19.8054C31.7071 20.0494 31.5407 20.2502 31.3411 20.3869L5.88621 37.8037C5.69829 37.9324 5.48727 37.9999 5.27275 38Z" fill="currentColor" />
		</symbol>
		<symbol id="cross" width="100%" height="100%" viewBox="0 0 16 16">
			<path d="M1 15L15 1M1 1L15 15" fill="none" stroke="currentColor" stroke-width="2" stroke-linecap="round" stroke-linejoin="round" />
		</symbol>
		<symbol id="location" width="100%" height="100%" viewBox="0 0 18 17">
			<path d="M8.5 1C5.45929 1 3 3.504 3 6.6C3 10.8 8.5 17 8.5 17C8.5 17 14 10.8 14 6.6C14 3.504 11.5407 1 8.5 1ZM8.5 2.6C8.5 0.392 8.5 5.5 8.5 2.6C8.5 0.392 8.5 4 8.5 2.6C8.5 4.904 8.5 4.5 8.5 2.6C8.5 5.5 8.5 4.88 8.5 2.6Z" fill="currentColor" />
			<path d="M8.5 8C9.32843 8 10 7.32843 10 6.5C10 5.67157 9.32843 5 8.5 5C7.67157 5 7 5.67157 7 6.5C7 7.32843 7.67157 8 8.5 8Z" fill="var(--bg3)" />
		</symbol>
		<symbol id="share" width="100%" height="100%" viewBox="0 0 32 32">
			<path d="M24 18.6671C23.2122 18.6724 22.4354 18.852 21.7253 19.1932C21.0153 19.5344 20.3896 20.0287 19.8933 20.6405L13.0933 17.5071C13.413 16.5281 13.413 15.4728 13.0933 14.4938L19.8933 11.3605C20.6955 12.3284 21.8138 12.9819 23.0509 13.2056C24.2879 13.4293 25.5643 13.2088 26.6546 12.583C27.7449 11.9573 28.5791 10.9664 29.01 9.78547C29.441 8.60449 29.4408 7.30925 29.0097 6.12835C28.5786 4.94745 27.7442 3.9568 26.6537 3.33124C25.5633 2.70567 24.2869 2.4854 23.0499 2.70931C21.8129 2.93322 20.6947 3.5869 19.8927 4.555C19.0907 5.5231 18.6565 6.74338 18.6667 8.00048C18.6707 8.31812 18.7019 8.63484 18.76 8.94714L11.72 12.1871C10.9694 11.4532 10.019 10.9572 8.98773 10.761C7.95647 10.5649 6.89028 10.6775 5.92272 11.0847C4.95516 11.4918 4.12927 12.1754 3.54852 13.0499C2.96777 13.9243 2.65799 14.9507 2.65799 16.0005C2.65799 17.0502 2.96777 18.0766 3.54852 18.9511C4.12927 19.8255 4.95516 20.5091 5.92272 20.9163C6.89028 21.3235 7.95647 21.436 8.98773 21.2399C10.019 21.0438 10.9694 20.5477 11.72 19.8138L18.76 23.0538C18.7019 23.3661 18.6707 23.6828 18.6667 24.0005C18.6667 25.0553 18.9794 26.0865 19.5655 26.9635C20.1515 27.8406 20.9845 28.5242 21.959 28.9278C22.9335 29.3315 24.0059 29.4371 25.0405 29.2313C26.075 29.0255 27.0253 28.5176 27.7712 27.7717C28.5171 27.0258 29.0251 26.0755 29.2308 25.041C29.4366 24.0064 29.331 22.934 28.9273 21.9595C28.5237 20.985 27.8401 20.152 26.963 19.566C26.086 18.9799 25.0548 18.6671 24 18.6671ZM24 5.33381C24.5274 5.33381 25.043 5.49021 25.4815 5.78323C25.92 6.07624 26.2618 6.49272 26.4637 6.97999C26.6655 7.46726 26.7183 8.00344 26.6154 8.52072C26.5125 9.038 26.2585 9.51316 25.8856 9.8861C25.5127 10.259 25.0375 10.513 24.5202 10.6159C24.0029 10.7188 23.4668 10.666 22.9795 10.4642C22.4922 10.2623 22.0758 9.92053 21.7827 9.482C21.4897 9.04347 21.3333 8.52789 21.3333 8.00048C21.3333 7.29323 21.6143 6.61496 22.1144 6.11486C22.6145 5.61476 23.2927 5.33381 24 5.33381ZM7.99999 18.6671C7.47257 18.6671 6.957 18.5107 6.51847 18.2177C6.07994 17.9247 5.73814 17.5082 5.53631 17.021C5.33447 16.5337 5.28166 15.9975 5.38456 15.4802C5.48745 14.963 5.74143 14.4878 6.11437 14.1149C6.48731 13.7419 6.96246 13.4879 7.47975 13.3851C7.99703 13.2822 8.53321 13.335 9.02048 13.5368C9.50775 13.7386 9.92422 14.0804 10.2172 14.519C10.5103 14.9575 10.6667 15.4731 10.6667 16.0005C10.6667 16.7077 10.3857 17.386 9.8856 17.8861C9.38551 18.3862 8.70723 18.6671 7.99999 18.6671ZM24 26.6671C23.4726 26.6671 22.957 26.5107 22.5185 26.2177C22.0799 25.9247 21.7381 25.5082 21.5363 25.021C21.3345 24.5337 21.2817 23.9975 21.3846 23.4802C21.4875 22.963 21.7414 22.4878 22.1144 22.1149C22.4873 21.7419 22.9625 21.4879 23.4797 21.3851C23.997 21.2822 24.5332 21.335 25.0205 21.5368C25.5077 21.7386 25.9242 22.0804 26.2172 22.519C26.5103 22.9575 26.6667 23.4731 26.6667 24.0005C26.6667 24.7077 26.3857 25.386 25.8856 25.8861C25.3855 26.3862 24.7072 26.6671 24 26.6671Z" fill="currentColor" />
		</symbol>
		<!--  -->
		<!--  -->
		<!--  -->
	</defs>
</svg>
